<svg xmlns="http://www.w3.org/2000/svg" viewBox="0 0 360 86" role="img" aria-labelledby="title desc">
  <title id="title">ABBY Safety and services logo lockup</title>
  <desc id="desc">ABBY mark with Safety and services text.</desc>
  <defs>
    <linearGradient id="markGradient" x1="9" y1="8" x2="60" y2="67" gradientUnits="userSpaceOnUse">
      <stop offset="0" stop-color="#0F7C73"/>
      <stop offset="1" stop-color="#0E5A3C"/>
    </linearGradient>
    <filter id="softShadow" x="-30%" y="-30%" width="160%" height="160%">
      <feDropShadow dx="0" dy="3" stdDeviation="3" flood-color="#07314A" flood-opacity="0.14"/>
    </filter>
  </defs>
  <rect x="12" y="13" width="56" height="56" rx="12" fill="url(#markGradient)" filter="url(#softShadow)"/>
  <path d="M30 53 39.2 25.6c.3-.9 1.6-.9 1.9 0L50.3 53h-6.4l-1.5-5.1h-8.8L32.1 53H30Zm10-19.7-3.3 10.3h6.5L40 33.3Z" fill="#FAFBF8"/>
  <text x="84" y="41" font-family="Avenir Next, Nunito, Trebuchet MS, Arial, sans-serif" font-size="23" font-weight="800" fill="#07314A">ABBY</text>
  <text x="84" y="63" font-family="Avenir Next, Nunito, Trebuchet MS, Arial, sans-serif" font-size="18" font-weight="500" fill="#102333">Safety and services</text>
  <path d="M198 56h34" stroke="#0E5A3C" stroke-width="3" stroke-linecap="round" opacity="0.85"/>
  <path d="M242 52c-4-6-13-3-13 4 0 7 13 13 13 13s13-6 13-13c0-7-9-10-13-4Z" fill="#0E5A3C" opacity="0.95" transform="translate(0 -11) scale(.7)"/>
  <path d="M272 56h34" stroke="#0E5A3C" stroke-width="3" stroke-linecap="round" opacity="0.85"/>
</svg>
