<svg xmlns="http://www.w3.org/2000/svg" viewBox="0 0 520 520" role="img" aria-labelledby="title desc">
  <title id="title">Watercolor evergreen tree cluster</title>
  <desc id="desc">Soft evergreen trees for decorative sidebar and background accents.</desc>
  <defs>
    <filter id="watercolor" x="-12%" y="-14%" width="124%" height="128%">
      <feTurbulence type="fractalNoise" baseFrequency="0.019" numOctaves="3" seed="31" result="noise"/>
      <feDisplacementMap in="SourceGraphic" in2="noise" scale="8"/>
      <feGaussianBlur stdDeviation="0.9"/>
    </filter>
    <symbol id="pine" viewBox="0 0 90 170">
      <path d="M45 5c-4 25-13 44-31 64 14-3 24-8 32-17-4 28-18 48-39 70 17-3 32-10 44-22-3 24-17 45-38 64 22-3 39-13 53-31 10 15 25 25 43 29-20-21-34-43-38-66 12 12 26 19 42 21-23-23-37-44-42-71 10 11 21 17 36 19C64 51 52 27 45 5Z" fill="#164C3A"/>
      <rect x="40" y="122" width="10" height="47" rx="4" fill="#164C3A"/>
    </symbol>
  </defs>
  <g filter="url(#watercolor)">
    <ellipse cx="250" cy="446" rx="200" ry="44" fill="#DCE8E2" opacity="0.5"/>
    <use href="#pine" x="55" y="230" width="105" height="198" opacity="0.55"/>
    <use href="#pine" x="127" y="177" width="132" height="250" opacity="0.68"/>
    <use href="#pine" x="220" y="80" width="168" height="318" opacity="0.78"/>
    <use href="#pine" x="338" y="158" width="122" height="232" opacity="0.62"/>
    <path d="M60 431c143-38 282-34 410 13v66H60Z" fill="#164C3A" opacity="0.17"/>
  </g>
</svg>
