<svg xmlns="http://www.w3.org/2000/svg" viewBox="0 0 860 260" preserveAspectRatio="xMidYMid meet" role="img" aria-labelledby="title desc">
  <title id="title">Subtle bridge watermark</title>
  <desc id="desc">A pale blue-green bridge with water strokes for ABBY support cards.</desc>
  <defs>
    <filter id="watercolor" x="-8%" y="-12%" width="116%" height="132%">
      <feTurbulence type="fractalNoise" baseFrequency="0.017" numOctaves="3" seed="9" result="noise"/>
      <feDisplacementMap in="SourceGraphic" in2="noise" scale="6"/>
      <feGaussianBlur stdDeviation="1"/>
    </filter>
  </defs>
  <g filter="url(#watercolor)" opacity="0.66" fill="none" stroke="#7FAEB4" stroke-linecap="round" stroke-linejoin="round">
    <path d="M72 158H780" stroke-width="10"/>
    <path d="M95 157c74-84 182-84 256 0" stroke-width="10"/>
    <path d="M341 157c74-84 182-84 256 0" stroke-width="10"/>
    <path d="M590 157c58-65 142-65 200 0" stroke-width="10"/>
    <path d="M98 158l35-36 38 36 38-45 40 45 39-44 43 44" stroke-width="5"/>
    <path d="M345 158l35-36 38 36 38-45 40 45 39-44 43 44" stroke-width="5"/>
    <path d="M595 158l30-31 34 31 34-40 35 40 35-36" stroke-width="5"/>
    <path d="M70 190c86 16 145 16 232 0M385 201c84 14 151 12 228-3M650 190c58 8 112 6 160-6" stroke-width="5" opacity="0.5"/>
    <path d="M80 223c138 16 239 13 348-5 109-18 207-18 327 1" stroke-width="4" opacity="0.33"/>
  </g>
</svg>
