<svg xmlns="http://www.w3.org/2000/svg" viewBox="0 0 1200 260" preserveAspectRatio="xMidYMin meet" role="img" aria-labelledby="title desc">
  <title id="title">Misty mountain, bridge, skyline, and evergreens</title>
  <desc id="desc">A subtle ABBY-inspired Pacific Northwest watercolor header illustration.</desc>
  <defs>
    <filter id="watercolor" x="-8%" y="-12%" width="116%" height="132%">
      <feTurbulence type="fractalNoise" baseFrequency="0.019" numOctaves="3" seed="13" result="noise"/>
      <feDisplacementMap in="SourceGraphic" in2="noise" scale="8"/>
      <feGaussianBlur stdDeviation="0.85"/>
    </filter>
    <linearGradient id="mountainFade" x1="0" x2="0" y1="0" y2="1">
      <stop offset="0" stop-color="#B7D3D5" stop-opacity="0.62"/>
      <stop offset="1" stop-color="#B7D3D5" stop-opacity="0.2"/>
    </linearGradient>
    <symbol id="pine" viewBox="0 0 72 130">
      <path d="M36 4c-3 20-10 34-24 49 11-2 18-6 25-13-3 22-14 38-31 56 13-2 25-8 35-18-3 20-14 36-30 51 18-2 31-11 42-25 8 12 20 20 34 23-16-17-27-34-30-52 9 10 20 15 33 17-18-18-29-35-33-57 8 9 17 14 29 15C51 36 42 22 36 4Z" fill="#164C3A"/>
      <rect x="32" y="91" width="8" height="38" rx="3" fill="#164C3A"/>
    </symbol>
  </defs>

  <rect width="1200" height="260" fill="none"/>
  <g filter="url(#watercolor)" opacity="0.88">
    <path d="M290 165 494 34l92 69 79-48 175 118H290Z" fill="url(#mountainFade)"/>
    <path d="M486 37 550 162H398Z" fill="#DCE8E2" opacity="0.52"/>
    <path d="M584 101 625 166H528Z" fill="#DCE8E2" opacity="0.45"/>
    <path d="M668 58 768 167H578Z" fill="#B7D3D5" opacity="0.35"/>
    <path d="M491 36 465 77 493 65 482 100 529 56Z" fill="#FAFBF8" opacity="0.78"/>
    <path d="M670 60 644 91 681 80 700 111 723 83Z" fill="#FAFBF8" opacity="0.62"/>
  </g>

  <g opacity="0.45">
    <rect x="630" y="145" width="28" height="56" rx="4" fill="#7FAEB4"/>
    <rect x="678" y="112" width="34" height="89" rx="5" fill="#7FAEB4"/>
    <rect x="727" y="140" width="42" height="61" rx="4" fill="#7FAEB4"/>
    <rect x="785" y="128" width="26" height="73" rx="4" fill="#7FAEB4"/>
    <rect x="824" y="148" width="46" height="53" rx="4" fill="#7FAEB4"/>
    <path d="M895 201V103c0-8 16-36 23-44 8 8 23 36 23 44v98Z" fill="#7FAEB4"/>
    <rect x="954" y="134" width="45" height="67" rx="4" fill="#7FAEB4"/>
  </g>

  <g fill="none" stroke="#7FAEB4" stroke-width="6" stroke-linecap="round" stroke-linejoin="round" opacity="0.5">
    <path d="M388 203H837"/>
    <path d="M424 202c63-72 154-72 217 0"/>
    <path d="M633 202c49-55 120-55 169 0"/>
    <path d="M425 202 455 174 488 203 520 164 553 203 586 166 621 203" stroke-width="4"/>
    <path d="M634 202 663 174 694 203 728 168 762 203 795 178" stroke-width="4"/>
  </g>

  <g opacity="0.74" filter="url(#watercolor)">
    <use href="#pine" x="992" y="55" width="83" height="150"/>
    <use href="#pine" x="1070" y="18" width="112" height="198"/>
    <use href="#pine" x="1133" y="70" width="72" height="132"/>
    <path d="M1005 205c71-18 121-16 196 3v38h-196Z" fill="#164C3A" opacity="0.28"/>
  </g>
</svg>
